<svg width="50" height="52" viewBox="0 0 50 52" fill="none" xmlns="http://www.w3.org/2000/svg">
<path d="M17.5234 3.5C13.8311 3.5 11.3121 4.15847 9.55957 5.11523C7.85468 6.04604 6.64956 7.38042 5.76074 9.1709C3.84851 13.0234 3.5 18.6842 3.5 26C3.5 33.3158 3.84851 38.9766 5.76074 42.8291C6.64956 44.6196 7.85468 45.954 9.55957 46.8848C11.3121 47.8415 13.8311 48.5 17.5234 48.5C24.9149 48.5 32.2826 45.8563 37.7539 41.6182C43.2361 37.3714 46.5 31.802 46.5 26C46.5 20.198 43.2361 14.6286 37.7539 10.3818C32.2826 6.14366 24.9149 3.50004 17.5234 3.5Z" stroke="#00499D" stroke-width="7"/>
</svg>
